<svg width="232" height="232" viewBox="0 0 232 232" fill="none" xmlns="http://www.w3.org/2000/svg">
<rect x="3" y="3" width="226" height="226" rx="71" fill="black" stroke="#2B2B2B" stroke-width="6"/>
<path d="M80.433 134.23V39H88.351V134.23H80.433ZM85.569 126.312C80.219 126.312 75.4753 125.206 71.338 122.995C67.2007 120.784 63.8837 117.752 61.387 113.9C58.8903 109.977 57.428 105.447 57 100.311L66.63 99.669C67.1293 103.45 68.1993 106.66 69.84 109.299C71.552 111.938 73.7277 113.936 76.367 115.291C79.0777 116.646 82.2163 117.324 85.783 117.324C89.3497 117.324 92.3457 116.896 94.771 116.04C97.1963 115.113 99.0153 113.793 100.228 112.081C101.512 110.298 102.154 108.193 102.154 105.768C102.154 103.343 101.619 101.31 100.549 99.669C99.479 97.957 97.4103 96.4233 94.343 95.068C91.347 93.6413 86.853 92.1433 80.861 90.574C75.5823 89.1473 71.3023 87.471 68.021 85.545C64.811 83.619 62.457 81.3363 60.959 78.697C59.5323 76.0577 58.819 73.026 58.819 69.602C58.819 65.322 59.8177 61.6127 61.815 58.474C63.8837 55.3353 66.8083 52.91 70.589 51.198C74.3697 49.486 78.8637 48.63 84.071 48.63C89.2783 48.63 93.7367 49.6287 97.446 51.626C101.155 53.6233 104.08 56.4053 106.22 59.972C108.431 63.4673 109.822 67.5333 110.393 72.17L100.763 72.812C100.335 69.7447 99.4433 67.0697 98.088 64.787C96.7327 62.5043 94.878 60.7567 92.524 59.544C90.17 58.26 87.281 57.618 83.857 57.618C79.149 57.618 75.404 58.6523 72.622 60.721C69.84 62.7183 68.449 65.536 68.449 69.174C68.449 71.528 68.9483 73.4897 69.947 75.059C71.017 76.557 72.8717 77.9123 75.511 79.125C78.1503 80.2663 81.8597 81.5147 86.639 82.87C92.845 84.582 97.767 86.4367 101.405 88.434C105.114 90.36 107.754 92.714 109.323 95.496C110.964 98.278 111.784 101.773 111.784 105.982C111.784 109.977 110.678 113.508 108.467 116.575C106.256 119.642 103.188 122.032 99.265 123.744C95.3417 125.456 90.7763 126.312 85.569 126.312Z" fill="white"/>
<path d="M144.591 134.23V39H152.509V134.23H144.591ZM149.727 126.312C144.377 126.312 139.634 125.206 135.496 122.995C131.359 120.784 128.042 117.752 125.545 113.9C123.049 109.977 121.586 105.447 121.158 100.311L130.788 99.669C131.288 103.45 132.358 106.66 133.998 109.299C135.71 111.938 137.886 113.936 140.525 115.291C143.236 116.646 146.375 117.324 149.941 117.324C153.508 117.324 156.504 116.896 158.929 116.04C161.355 115.113 163.174 113.793 164.386 112.081C165.67 110.298 166.312 108.193 166.312 105.768C166.312 103.343 165.777 101.31 164.707 99.669C163.637 97.957 161.569 96.4233 158.501 95.068C155.505 93.6413 151.011 92.1433 145.019 90.574C139.741 89.1473 135.461 87.471 132.179 85.545C128.969 83.619 126.615 81.3363 125.117 78.697C123.691 76.0577 122.977 73.026 122.977 69.602C122.977 65.322 123.976 61.6127 125.973 58.474C128.042 55.3353 130.967 52.91 134.747 51.198C138.528 49.486 143.022 48.63 148.229 48.63C153.437 48.63 157.895 49.6287 161.604 51.626C165.314 53.6233 168.238 56.4053 170.378 59.972C172.59 63.4673 173.981 67.5333 174.551 72.17L164.921 72.812C164.493 69.7447 163.602 67.0697 162.246 64.787C160.891 62.5043 159.036 60.7567 156.682 59.544C154.328 58.26 151.439 57.618 148.015 57.618C143.307 57.618 139.562 58.6523 136.78 60.721C133.998 62.7183 132.607 65.536 132.607 69.174C132.607 71.528 133.107 73.4897 134.105 75.059C135.175 76.557 137.03 77.9123 139.669 79.125C142.309 80.2663 146.018 81.5147 150.797 82.87C157.003 84.582 161.925 86.4367 165.563 88.434C169.273 90.36 171.912 92.714 173.481 95.496C175.122 98.278 175.942 101.773 175.942 105.982C175.942 109.977 174.837 113.508 172.625 116.575C170.414 119.642 167.347 122.032 163.423 123.744C159.5 125.456 154.935 126.312 149.727 126.312Z" fill="white"/>
<path d="M70 178.025L70 170C77.704 174.494 85.3723 177.882 93.005 180.165C100.709 182.448 108.377 183.589 116.01 183.589C131.275 183.589 146.612 179.059 162.02 170V178.025C147.183 187.94 131.846 192.898 116.01 192.898C108.235 192.898 100.459 191.65 92.684 189.153C84.98 186.656 77.4187 182.947 70 178.025Z" fill="white"/>
</svg>
