<svg width="759" height="173" viewBox="0 0 759 173" fill="none" xmlns="http://www.w3.org/2000/svg">
<path d="M18.373 120C16.6966 120 15.4225 119.564 14.5507 118.692C13.746 117.754 13.3437 116.748 13.3437 115.675C13.3437 114.602 13.746 113.63 14.5507 112.758C15.3554 111.819 16.596 111.35 18.2724 111.35H26.8222L65.5478 10.8643H43.7206C42.0442 10.8643 40.7701 10.4284 39.8984 9.55664C39.0937 8.61784 38.6913 7.61198 38.6913 6.53906C38.6913 5.46615 39.0937 4.49382 39.8984 3.62207C40.7031 2.68327 41.9436 2.21387 43.6201 2.21387H74.0976C76.4446 2.21387 78.2216 2.88444 79.4286 4.22559C80.7027 5.49967 81.6415 7.00846 82.2451 8.75195L118.657 111.35H126.603C128.213 111.35 129.42 111.785 130.225 112.657C131.029 113.529 131.432 114.501 131.432 115.574C131.432 116.647 130.996 117.653 130.124 118.592C129.319 119.531 128.079 120 126.402 120H89.5878C87.9114 120 86.6373 119.531 85.7656 118.592C84.8938 117.653 84.4579 116.647 84.4579 115.574C84.4579 114.501 84.8603 113.529 85.665 112.657C86.4697 111.785 87.7102 111.35 89.3867 111.35H108.096L97.3329 80.5703H48.7499L37.4843 111.35H53.4775C55.1539 111.35 56.3945 111.819 57.1992 112.758C58.0709 113.63 58.5068 114.602 58.5068 115.675C58.5068 116.748 58.0709 117.754 57.1992 118.692C56.3945 119.564 55.1204 120 53.3769 120H18.373ZM52.0693 72.2217H94.3154L74.2988 12.1719L52.0693 72.2217Z" fill="white"/>
<path d="M155.069 120C153.393 120 152.119 119.564 151.247 118.692C150.375 117.821 149.939 116.882 149.939 115.876C149.939 114.803 150.342 113.864 151.146 113.06C152.018 112.188 153.292 111.752 154.969 111.752H167.542V10.8643H157.785C156.109 10.8643 154.835 10.4284 153.963 9.55664C153.158 8.6849 152.756 7.71257 152.756 6.63965C152.756 5.49967 153.192 4.49382 154.063 3.62207C154.935 2.68327 156.209 2.21387 157.886 2.21387H190.073C199.796 2.21387 208.346 2.98503 215.723 4.52734C223.166 6.06966 228.966 9.12077 233.124 13.6807C237.282 18.2406 239.36 25.0804 239.36 34.2002C239.36 41.9118 237.214 47.9805 232.923 52.4062C228.631 56.765 223.87 59.9167 218.64 61.8613L239.159 111.752H247.608C250.157 111.752 251.866 112.188 252.738 113.06C253.61 113.864 254.046 114.77 254.046 115.775C254.046 116.848 253.576 117.821 252.638 118.692C251.699 119.564 250.056 120 247.709 120H224.071C222.395 120 221.121 119.564 220.249 118.692C219.377 117.821 218.941 116.848 218.941 115.775C218.941 114.77 219.344 113.864 220.148 113.06C220.953 112.188 222.194 111.752 223.87 111.752H229L210.894 64.0742C210.425 64.2083 209.185 64.4095 207.173 64.6777C205.228 64.8789 203.082 65.0801 200.735 65.2812C198.388 65.4154 196.41 65.4824 194.801 65.4824H177.198V111.752H195.304C196.98 111.752 198.221 112.188 199.025 113.06C199.83 113.864 200.232 114.803 200.232 115.876C200.232 116.882 199.83 117.821 199.025 118.692C198.221 119.564 196.947 120 195.203 120H155.069ZM177.198 57.7373H187.961C196.276 57.7373 203.552 57.2344 209.788 56.2285C216.091 55.1556 220.987 53.0098 224.474 49.791C227.961 46.5052 229.704 41.543 229.704 34.9043C229.704 28.0645 228.363 22.9346 225.681 19.5146C222.998 16.0277 218.74 13.7142 212.906 12.5742C207.072 11.4342 199.428 10.8643 189.973 10.8643H177.198V57.7373Z" fill="white"/>
<path d="M291.967 120C290.29 120 288.983 119.531 288.044 118.592C287.172 117.653 286.736 116.647 286.736 115.574C286.736 114.501 287.139 113.529 287.943 112.657C288.815 111.785 290.089 111.35 291.766 111.35H316.107V10.8643H281.103L279.896 38.123C279.829 39.6654 279.36 40.8053 278.488 41.543C277.684 42.2806 276.778 42.6494 275.772 42.6494C274.565 42.6494 273.425 42.18 272.352 41.2412C271.347 40.3024 270.844 38.9613 270.844 37.2178V7.64551C270.844 4.02441 272.252 2.21387 275.068 2.21387H367.205C369.887 2.21387 371.228 4.02441 371.228 7.64551V37.2178C371.228 38.9613 370.726 40.2689 369.72 41.1406C368.781 42.0124 367.741 42.4482 366.602 42.4482C365.529 42.4482 364.556 42.0794 363.685 41.3418C362.813 40.6042 362.31 39.5312 362.176 38.123L361.17 10.8643H325.764V111.35H350.105C351.715 111.35 352.922 111.785 353.727 112.657C354.598 113.529 355.034 114.501 355.034 115.574C355.034 116.647 354.598 117.653 353.727 118.592C352.855 119.531 351.581 120 349.904 120H291.967Z" fill="white"/>
<path d="M450.792 121.71C440.465 121.71 431.211 119.162 423.03 114.065C414.916 108.902 408.512 101.626 403.818 92.2383C399.124 82.8503 396.777 71.7523 396.777 58.9443C396.777 47.2764 399.124 37.0837 403.818 28.3662C408.512 19.5817 414.916 12.7754 423.03 7.94727C431.144 3.05208 440.365 0.604492 450.691 0.604492C458.671 0.604492 465.913 2.2474 472.418 5.5332C478.99 8.81901 483.616 12.943 486.299 17.9053V7.24316C486.299 5.56673 486.802 4.32617 487.808 3.52148C488.88 2.64974 490.02 2.21387 491.227 2.21387C492.502 2.21387 493.642 2.64974 494.647 3.52148C495.653 4.32617 496.156 5.60026 496.156 7.34375V36.8154C496.156 38.4248 495.653 39.6318 494.647 40.4365C493.709 41.1742 492.669 41.543 491.529 41.543C488.847 41.543 487.238 39.9671 486.701 36.8154C485.159 28.5674 481.068 21.9287 474.43 16.8994C467.791 11.8031 459.979 9.25488 450.993 9.25488C441.806 9.25488 433.86 11.4342 427.154 15.793C420.516 20.1517 415.386 26.1198 411.765 33.6973C408.211 41.2747 406.434 49.9251 406.434 59.6484C406.434 70.9141 408.479 80.5368 412.569 88.5166C416.727 96.4964 422.192 102.599 428.965 106.823C435.738 110.981 443.047 113.06 450.893 113.06C460.616 113.06 468.73 110.444 475.234 105.214C481.739 99.9163 486.332 92.8083 489.015 83.8896C489.685 82.012 491.026 81.0732 493.038 81.0732C494.379 81.0732 495.653 81.5091 496.86 82.3809C498.134 83.2526 498.771 84.292 498.771 85.499C498.771 85.8343 498.738 86.069 498.671 86.2031C497.464 91.8359 494.916 97.3682 491.026 102.8C487.204 108.231 481.974 112.758 475.335 116.379C468.696 119.933 460.515 121.71 450.792 121.71Z" fill="white"/>
<path d="M539.408 120C537.732 120 536.458 119.564 535.586 118.692C534.714 117.754 534.278 116.748 534.278 115.675C534.278 114.602 534.681 113.63 535.485 112.758C536.357 111.819 537.631 111.35 539.308 111.35H569.986V10.8643H539.308C537.631 10.8643 536.357 10.4284 535.485 9.55664C534.681 8.6849 534.278 7.71257 534.278 6.63965C534.278 5.49967 534.714 4.49382 535.586 3.62207C536.458 2.68327 537.732 2.21387 539.408 2.21387H608.31C609.986 2.21387 611.227 2.68327 612.031 3.62207C612.903 4.49382 613.339 5.49967 613.339 6.63965C613.339 7.71257 612.936 8.6849 612.132 9.55664C611.327 10.4284 610.087 10.8643 608.41 10.8643H579.643V111.35H608.41C610.087 111.35 611.327 111.819 612.132 112.758C612.936 113.63 613.339 114.602 613.339 115.675C613.339 116.748 612.903 117.754 612.031 118.692C611.227 119.564 609.986 120 608.31 120H539.408Z" fill="white"/>
<path d="M664.135 120C662.458 120 661.184 119.564 660.312 118.692C659.441 117.754 659.005 116.748 659.005 115.675C659.005 114.602 659.407 113.63 660.212 112.758C661.084 111.819 662.358 111.35 664.034 111.35H694.713V10.8643H664.034C662.358 10.8643 661.084 10.4284 660.212 9.55664C659.407 8.6849 659.005 7.71257 659.005 6.63965C659.005 5.49967 659.441 4.49382 660.312 3.62207C661.184 2.68327 662.458 2.21387 664.135 2.21387H733.036C734.713 2.21387 735.953 2.68327 736.758 3.62207C737.629 4.49382 738.065 5.49967 738.065 6.63965C738.065 7.71257 737.663 8.6849 736.858 9.55664C736.054 10.4284 734.813 10.8643 733.137 10.8643H704.369V111.35H733.137C734.813 111.35 736.054 111.819 736.858 112.758C737.663 113.63 738.065 114.602 738.065 115.675C738.065 116.748 737.629 117.754 736.758 118.692C735.953 119.564 734.713 120 733.036 120H664.135Z" fill="white"/>
<path d="M1.22046 172C0.870524 172 0.604574 171.909 0.422607 171.727C0.254639 171.531 0.170654 171.321 0.170654 171.097C0.170654 170.873 0.254639 170.67 0.422607 170.488C0.590576 170.292 0.849528 170.194 1.19946 170.194H2.98413L11.0676 149.219H6.51147C6.16154 149.219 5.89559 149.128 5.71362 148.946C5.54565 148.75 5.46167 148.54 5.46167 148.316C5.46167 148.092 5.54565 147.889 5.71362 147.708C5.88159 147.512 6.14054 147.414 6.49048 147.414H12.8523C13.3422 147.414 13.7131 147.554 13.9651 147.833C14.231 148.099 14.427 148.414 14.553 148.778L22.1536 170.194H23.8123C24.1482 170.194 24.4001 170.285 24.5681 170.467C24.7361 170.649 24.8201 170.852 24.8201 171.076C24.8201 171.3 24.7291 171.51 24.5471 171.706C24.3792 171.902 24.1202 172 23.7703 172H16.0857C15.7358 172 15.4698 171.902 15.2878 171.706C15.1059 171.51 15.0149 171.3 15.0149 171.076C15.0149 170.852 15.0989 170.649 15.2668 170.467C15.4348 170.285 15.6938 170.194 16.0437 170.194H19.949L17.7024 163.77H7.56128L5.20972 170.194H8.5481C8.89803 170.194 9.15698 170.292 9.32495 170.488C9.50692 170.67 9.5979 170.873 9.5979 171.097C9.5979 171.321 9.50692 171.531 9.32495 171.727C9.15698 171.909 8.89103 172 8.5271 172H1.22046ZM8.25415 162.027H17.0725L12.8943 149.492L8.25415 162.027Z" fill="white"/>
<path d="M43.1807 172.357C42.8308 172.357 42.5718 172.245 42.4039 172.021C42.2499 171.811 42.1729 171.405 42.1729 170.803V164.21C42.1729 163.875 42.2639 163.63 42.4459 163.476C42.6278 163.308 42.8448 163.224 43.0967 163.224C43.3487 163.224 43.5727 163.308 43.7686 163.476C43.9646 163.644 44.0626 163.903 44.0626 164.252V166.751C44.0626 167.353 44.4055 167.948 45.0914 168.536C45.7772 169.11 46.6521 169.592 47.7159 169.984C48.7937 170.362 49.9135 170.551 51.0753 170.551C52.615 170.551 53.9377 170.18 55.0435 169.438C56.1633 168.683 56.7232 167.409 56.7232 165.617C56.7232 164.259 56.3033 163.259 55.4634 162.615C54.6236 161.971 53.4338 161.39 51.8941 160.872L48.4508 159.696C47.345 159.318 46.3371 158.898 45.4273 158.437C44.5315 157.975 43.8106 157.359 43.2647 156.589C42.7328 155.819 42.4669 154.79 42.4669 153.502C42.4669 152.103 42.7958 150.927 43.4537 149.975C44.1116 149.023 44.9864 148.302 46.0782 147.812C47.184 147.323 48.3948 147.078 49.7105 147.078C50.7183 147.078 51.8031 147.204 52.9649 147.456C54.1267 147.694 55.0715 148.211 55.7994 149.009C55.7994 147.722 56.1633 147.078 56.8912 147.078C57.1711 147.078 57.3811 147.19 57.5211 147.414C57.661 147.624 57.731 148.001 57.731 148.547V153.859C57.731 154.237 57.633 154.517 57.4371 154.699C57.2551 154.881 57.0312 154.972 56.7652 154.972C56.5272 154.972 56.3103 154.888 56.1143 154.72C55.9184 154.552 55.8204 154.307 55.8204 153.985V152.075C55.7364 151.347 55.4005 150.752 54.8126 150.29C54.2247 149.814 53.5108 149.464 52.671 149.24C51.8451 149.002 51.0193 148.883 50.1934 148.883C48.4018 148.883 47.002 149.289 45.9942 150.101C44.9864 150.913 44.4825 152.012 44.4825 153.397C44.4825 154.363 44.6575 155.105 45.0074 155.623C45.3713 156.141 45.9172 156.568 46.6451 156.904C47.387 157.226 48.3248 157.583 49.4586 157.975L52.314 158.961C54.3577 159.661 55.9394 160.487 57.0592 161.439C58.1789 162.377 58.7388 163.742 58.7388 165.533C58.7388 167.185 58.3749 168.515 57.647 169.522C56.9192 170.516 55.9674 171.237 54.7916 171.685C53.6158 172.133 52.356 172.357 51.0123 172.357C49.8925 172.357 48.6677 172.133 47.338 171.685C46.0082 171.237 44.9514 170.607 44.1675 169.795C44.1675 171.503 43.8386 172.357 43.1807 172.357Z" fill="white"/>
<path d="M87.8075 172.357C85.6519 172.357 83.7203 171.825 82.0126 170.761C80.3189 169.683 78.9822 168.165 78.0023 166.205C77.0225 164.245 76.5326 161.929 76.5326 159.255C76.5326 156.82 77.0225 154.692 78.0023 152.873C78.9822 151.039 80.3189 149.618 82.0126 148.61C83.7063 147.589 85.6309 147.078 87.7865 147.078C89.4522 147.078 90.9639 147.421 92.3217 148.106C93.6934 148.792 94.6592 149.653 95.2191 150.689V148.463C95.2191 148.113 95.3241 147.854 95.5341 147.687C95.758 147.505 95.996 147.414 96.2479 147.414C96.5139 147.414 96.7518 147.505 96.9618 147.687C97.1718 147.854 97.2767 148.12 97.2767 148.484V154.636C97.2767 154.972 97.1718 155.224 96.9618 155.392C96.7658 155.546 96.5489 155.623 96.3109 155.623C95.751 155.623 95.4151 155.294 95.3031 154.636C94.9812 152.915 94.1273 151.529 92.7416 150.479C91.3559 149.415 89.7252 148.883 87.8495 148.883C85.9319 148.883 84.2732 149.338 82.8734 150.248C81.4877 151.158 80.4169 152.404 79.661 153.985C78.9192 155.567 78.5482 157.373 78.5482 159.402C78.5482 161.754 78.9752 163.763 79.829 165.428C80.6968 167.094 81.8376 168.368 83.2514 169.25C84.6651 170.117 86.1908 170.551 87.8285 170.551C89.8581 170.551 91.5518 170.005 92.9096 168.914C94.2673 167.808 95.2261 166.324 95.786 164.462C95.926 164.07 96.2059 163.875 96.6259 163.875C96.9058 163.875 97.1718 163.965 97.4237 164.147C97.6897 164.329 97.8226 164.546 97.8226 164.798C97.8226 164.868 97.8156 164.917 97.8017 164.945C97.5497 166.121 97.0178 167.276 96.2059 168.41C95.4081 169.543 94.3163 170.488 92.9306 171.244C91.5448 171.986 89.8371 172.357 87.8075 172.357Z" fill="white"/>
<path d="M117.485 172C117.135 172 116.869 171.909 116.687 171.727C116.505 171.531 116.414 171.321 116.414 171.097C116.414 170.873 116.498 170.67 116.666 170.488C116.848 170.292 117.114 170.194 117.464 170.194H123.868V149.219H117.464C117.114 149.219 116.848 149.128 116.666 148.946C116.498 148.764 116.414 148.561 116.414 148.337C116.414 148.099 116.505 147.889 116.687 147.708C116.869 147.512 117.135 147.414 117.485 147.414H131.867C132.217 147.414 132.476 147.512 132.644 147.708C132.826 147.889 132.917 148.099 132.917 148.337C132.917 148.561 132.833 148.764 132.665 148.946C132.497 149.128 132.238 149.219 131.888 149.219H125.884V170.194H131.888C132.238 170.194 132.497 170.292 132.665 170.488C132.833 170.67 132.917 170.873 132.917 171.097C132.917 171.321 132.826 171.531 132.644 171.727C132.476 171.909 132.217 172 131.867 172H117.485Z" fill="white"/>
<path d="M154.7 172C154.35 172 154.084 171.909 153.902 171.727C153.72 171.531 153.629 171.321 153.629 171.097C153.629 170.873 153.713 170.67 153.881 170.488C154.063 170.292 154.329 170.194 154.679 170.194H161.083V149.219H154.679C154.329 149.219 154.063 149.128 153.881 148.946C153.713 148.764 153.629 148.561 153.629 148.337C153.629 148.099 153.72 147.889 153.902 147.708C154.084 147.512 154.35 147.414 154.7 147.414H169.083C169.432 147.414 169.691 147.512 169.859 147.708C170.041 147.889 170.132 148.099 170.132 148.337C170.132 148.561 170.048 148.764 169.88 148.946C169.712 149.128 169.453 149.219 169.104 149.219H163.099V170.194H169.104C169.453 170.194 169.712 170.292 169.88 170.488C170.048 170.67 170.132 170.873 170.132 171.097C170.132 171.321 170.041 171.531 169.859 171.727C169.691 171.909 169.432 172 169.083 172H154.7Z" fill="white"/>
<path d="M224.511 172C224.161 172 223.896 171.909 223.714 171.727C223.546 171.531 223.462 171.321 223.462 171.097C223.462 170.873 223.546 170.67 223.714 170.488C223.882 170.292 224.14 170.194 224.49 170.194H226.275L234.359 149.219H229.802C229.452 149.219 229.187 149.128 229.005 148.946C228.837 148.75 228.753 148.54 228.753 148.316C228.753 148.092 228.837 147.889 229.005 147.708C229.173 147.512 229.431 147.414 229.781 147.414H236.143C236.633 147.414 237.004 147.554 237.256 147.833C237.522 148.099 237.718 148.414 237.844 148.778L245.445 170.194H247.103C247.439 170.194 247.691 170.285 247.859 170.467C248.027 170.649 248.111 170.852 248.111 171.076C248.111 171.3 248.02 171.51 247.838 171.706C247.67 171.902 247.411 172 247.061 172H239.377C239.027 172 238.761 171.902 238.579 171.706C238.397 171.51 238.306 171.3 238.306 171.076C238.306 170.852 238.39 170.649 238.558 170.467C238.726 170.285 238.985 170.194 239.335 170.194H243.24L240.993 163.77H230.852L228.501 170.194H231.839C232.189 170.194 232.448 170.292 232.616 170.488C232.798 170.67 232.889 170.873 232.889 171.097C232.889 171.321 232.798 171.531 232.616 171.727C232.448 171.909 232.182 172 231.818 172H224.511ZM231.545 162.027H240.363L236.185 149.492L231.545 162.027Z" fill="white"/>
<path d="M264.225 172C263.875 172 263.609 171.909 263.427 171.727C263.245 171.545 263.154 171.349 263.154 171.139C263.154 170.915 263.238 170.719 263.406 170.551C263.588 170.369 263.854 170.278 264.204 170.278H266.829V149.219H264.792C264.442 149.219 264.176 149.128 263.994 148.946C263.826 148.764 263.742 148.561 263.742 148.337C263.742 148.099 263.833 147.889 264.015 147.708C264.197 147.512 264.463 147.414 264.813 147.414H271.532C273.561 147.414 275.346 147.575 276.886 147.896C278.439 148.218 279.65 148.855 280.518 149.807C281.386 150.759 281.82 152.187 281.82 154.09C281.82 155.7 281.372 156.967 280.476 157.891C279.58 158.8 278.586 159.458 277.495 159.864L281.778 170.278H283.542C284.073 170.278 284.43 170.369 284.612 170.551C284.794 170.719 284.885 170.908 284.885 171.118C284.885 171.342 284.787 171.545 284.591 171.727C284.395 171.909 284.052 172 283.562 172H278.628C278.278 172 278.013 171.909 277.831 171.727C277.649 171.545 277.558 171.342 277.558 171.118C277.558 170.908 277.642 170.719 277.81 170.551C277.978 170.369 278.236 170.278 278.586 170.278H279.657L275.878 160.326C275.78 160.354 275.521 160.396 275.101 160.452C274.695 160.494 274.247 160.536 273.757 160.578C273.267 160.606 272.854 160.62 272.519 160.62H268.844V170.278H272.624C272.973 170.278 273.232 170.369 273.4 170.551C273.568 170.719 273.652 170.915 273.652 171.139C273.652 171.349 273.568 171.545 273.4 171.727C273.232 171.909 272.966 172 272.603 172H264.225ZM268.844 159.003H271.091C272.826 159.003 274.345 158.898 275.647 158.688C276.963 158.465 277.985 158.017 278.712 157.345C279.44 156.659 279.804 155.623 279.804 154.237C279.804 152.81 279.524 151.739 278.964 151.025C278.404 150.297 277.516 149.814 276.298 149.576C275.08 149.338 273.484 149.219 271.511 149.219H268.844V159.003Z" fill="white"/>
<path d="M303.981 172C303.631 172 303.358 171.902 303.162 171.706C302.98 171.51 302.889 171.3 302.889 171.076C302.889 170.852 302.973 170.649 303.141 170.467C303.323 170.285 303.589 170.194 303.939 170.194H309.02V149.219H301.713L301.461 154.909C301.447 155.231 301.349 155.469 301.167 155.623C300.999 155.777 300.81 155.854 300.6 155.854C300.348 155.854 300.11 155.756 299.887 155.56C299.677 155.364 299.572 155.084 299.572 154.72V148.547C299.572 147.792 299.866 147.414 300.453 147.414H319.686C320.246 147.414 320.526 147.792 320.526 148.547V154.72C320.526 155.084 320.421 155.357 320.211 155.539C320.015 155.721 319.798 155.812 319.56 155.812C319.336 155.812 319.133 155.735 318.951 155.581C318.769 155.427 318.664 155.203 318.636 154.909L318.426 149.219H311.035V170.194H316.117C316.452 170.194 316.704 170.285 316.872 170.467C317.054 170.649 317.145 170.852 317.145 171.076C317.145 171.3 317.054 171.51 316.872 171.706C316.69 171.902 316.424 172 316.075 172H303.981Z" fill="white"/>
<path d="M392.268 172.336C391.765 172.336 391.373 172.07 391.093 171.538L379.482 149.24V170.194H382.379C382.729 170.194 382.988 170.292 383.156 170.488C383.324 170.67 383.408 170.873 383.408 171.097C383.408 171.321 383.317 171.531 383.135 171.727C382.967 171.909 382.708 172 382.358 172H374.842C374.492 172 374.226 171.909 374.044 171.727C373.876 171.531 373.792 171.321 373.792 171.097C373.792 170.873 373.876 170.67 374.044 170.488C374.212 170.292 374.471 170.194 374.821 170.194H377.466V149.219H374.191C373.841 149.219 373.582 149.128 373.414 148.946C373.246 148.764 373.162 148.561 373.162 148.337C373.162 148.099 373.246 147.889 373.414 147.708C373.596 147.512 373.862 147.414 374.212 147.414H380.238C380.63 147.414 380.91 147.582 381.078 147.917L391.282 167.927V149.219H388.153C387.803 149.219 387.544 149.128 387.376 148.946C387.208 148.764 387.124 148.561 387.124 148.337C387.124 148.099 387.215 147.889 387.397 147.708C387.579 147.512 387.845 147.414 388.195 147.414H395.271C395.621 147.414 395.88 147.512 396.048 147.708C396.23 147.889 396.321 148.099 396.321 148.337C396.321 148.561 396.237 148.764 396.069 148.946C395.901 149.128 395.649 149.219 395.313 149.219H393.297V171.013C393.297 171.461 393.192 171.79 392.982 172C392.786 172.224 392.548 172.336 392.268 172.336Z" fill="white"/>
<path d="M411.952 172C411.602 172 411.336 171.909 411.154 171.727C410.972 171.531 410.881 171.321 410.881 171.097C410.881 170.873 410.965 170.67 411.133 170.488C411.315 170.306 411.581 170.215 411.931 170.215H415.5V149.219H412.666C412.33 149.219 412.078 149.128 411.91 148.946C411.742 148.764 411.658 148.561 411.658 148.337C411.658 148.099 411.742 147.889 411.91 147.708C412.092 147.512 412.358 147.414 412.708 147.414H431.142C431.926 147.414 432.318 147.792 432.318 148.547V154.216C432.318 154.524 432.227 154.755 432.045 154.909C431.877 155.063 431.688 155.14 431.478 155.14C431.268 155.14 431.072 155.077 430.89 154.951C430.708 154.811 430.61 154.608 430.596 154.342L430.303 149.219H417.516V158.269H424.361L424.634 155.476C424.662 155.154 424.76 154.916 424.928 154.762C425.109 154.608 425.291 154.531 425.473 154.531C425.669 154.531 425.851 154.622 426.019 154.804C426.187 154.972 426.271 155.252 426.271 155.644V162.825C426.271 163.189 426.187 163.462 426.019 163.644C425.851 163.812 425.669 163.896 425.473 163.896C425.277 163.896 425.095 163.819 424.928 163.665C424.76 163.511 424.662 163.287 424.634 162.993L424.361 159.885H417.516V170.215H430.428L430.764 164.945C430.778 164.693 430.876 164.497 431.058 164.357C431.254 164.203 431.464 164.126 431.688 164.126C431.912 164.126 432.115 164.217 432.297 164.399C432.479 164.567 432.57 164.84 432.57 165.218V170.887C432.57 171.629 432.178 172 431.394 172H411.952Z" fill="white"/>
<path d="M459.896 172.756C459.518 172.756 459.224 172.644 459.014 172.42C458.818 172.21 458.664 171.93 458.552 171.58L451.372 149.219H449.188C448.852 149.219 448.6 149.128 448.432 148.946C448.264 148.764 448.18 148.561 448.18 148.337C448.18 148.099 448.264 147.889 448.432 147.708C448.614 147.512 448.88 147.414 449.23 147.414H456.369C456.719 147.414 456.978 147.505 457.146 147.687C457.328 147.868 457.419 148.078 457.419 148.316C457.419 148.54 457.335 148.75 457.167 148.946C456.999 149.128 456.74 149.219 456.39 149.219H453.639L460.001 169.501L465.775 149.219H463.255C462.906 149.219 462.64 149.128 462.458 148.946C462.29 148.75 462.206 148.54 462.206 148.316C462.206 148.078 462.297 147.868 462.479 147.687C462.661 147.505 462.927 147.414 463.276 147.414H469.659C470.009 147.414 470.268 147.505 470.436 147.687C470.618 147.868 470.709 148.078 470.709 148.316C470.709 148.54 470.625 148.75 470.457 148.946C470.289 149.128 470.03 149.219 469.68 149.219H467.875L461.24 171.58C461.072 171.958 460.897 172.245 460.715 172.441C460.547 172.651 460.274 172.756 459.896 172.756Z" fill="white"/>
<path d="M486.382 172C486.032 172 485.766 171.909 485.584 171.727C485.402 171.531 485.311 171.321 485.311 171.097C485.311 170.873 485.395 170.67 485.563 170.488C485.745 170.306 486.011 170.215 486.361 170.215H489.931V149.219H487.096C486.76 149.219 486.508 149.128 486.34 148.946C486.172 148.764 486.088 148.561 486.088 148.337C486.088 148.099 486.172 147.889 486.34 147.708C486.522 147.512 486.788 147.414 487.138 147.414H505.573C506.357 147.414 506.748 147.792 506.748 148.547V154.216C506.748 154.524 506.657 154.755 506.475 154.909C506.308 155.063 506.119 155.14 505.909 155.14C505.699 155.14 505.503 155.077 505.321 154.951C505.139 154.811 505.041 154.608 505.027 154.342L504.733 149.219H491.946V158.269H498.791L499.064 155.476C499.092 155.154 499.19 154.916 499.358 154.762C499.54 154.608 499.722 154.531 499.904 154.531C500.1 154.531 500.282 154.622 500.45 154.804C500.618 154.972 500.702 155.252 500.702 155.644V162.825C500.702 163.189 500.618 163.462 500.45 163.644C500.282 163.812 500.1 163.896 499.904 163.896C499.708 163.896 499.526 163.819 499.358 163.665C499.19 163.511 499.092 163.287 499.064 162.993L498.791 159.885H491.946V170.215H504.859L505.195 164.945C505.209 164.693 505.307 164.497 505.489 164.357C505.685 164.203 505.895 164.126 506.119 164.126C506.343 164.126 506.545 164.217 506.727 164.399C506.909 164.567 507 164.84 507 165.218V170.887C507 171.629 506.608 172 505.825 172H486.382Z" fill="white"/>
<path d="M524.731 172C524.381 172 524.115 171.909 523.933 171.727C523.751 171.545 523.66 171.349 523.66 171.139C523.66 170.915 523.744 170.719 523.912 170.551C524.094 170.369 524.36 170.278 524.71 170.278H527.335V149.219H525.298C524.948 149.219 524.682 149.128 524.5 148.946C524.332 148.764 524.248 148.561 524.248 148.337C524.248 148.099 524.339 147.889 524.521 147.708C524.703 147.512 524.969 147.414 525.319 147.414H532.038C534.067 147.414 535.852 147.575 537.392 147.896C538.946 148.218 540.156 148.855 541.024 149.807C541.892 150.759 542.326 152.187 542.326 154.09C542.326 155.7 541.878 156.967 540.982 157.891C540.086 158.8 539.093 159.458 538.001 159.864L542.284 170.278H544.048C544.58 170.278 544.936 170.369 545.118 170.551C545.3 170.719 545.391 170.908 545.391 171.118C545.391 171.342 545.293 171.545 545.097 171.727C544.901 171.909 544.559 172 544.069 172H539.135C538.785 172 538.519 171.909 538.337 171.727C538.155 171.545 538.064 171.342 538.064 171.118C538.064 170.908 538.148 170.719 538.316 170.551C538.484 170.369 538.743 170.278 539.093 170.278H540.163L536.384 160.326C536.286 160.354 536.027 160.396 535.607 160.452C535.201 160.494 534.753 160.536 534.263 160.578C533.774 160.606 533.361 160.62 533.025 160.62H529.35V170.278H533.13C533.48 170.278 533.739 170.369 533.906 170.551C534.074 170.719 534.158 170.915 534.158 171.139C534.158 171.349 534.074 171.545 533.906 171.727C533.739 171.909 533.473 172 533.109 172H524.731ZM529.35 159.003H531.597C533.333 159.003 534.851 158.898 536.153 158.688C537.469 158.465 538.491 158.017 539.219 157.345C539.946 156.659 540.31 155.623 540.31 154.237C540.31 152.81 540.03 151.739 539.47 151.025C538.911 150.297 538.022 149.814 536.804 149.576C535.586 149.338 533.99 149.219 532.017 149.219H529.35V159.003Z" fill="white"/>
<path d="M597.965 172C597.615 172 597.349 171.909 597.167 171.727C596.985 171.531 596.894 171.321 596.894 171.097C596.894 170.873 596.978 170.67 597.146 170.488C597.328 170.292 597.594 170.194 597.944 170.194H601.366V149.219H598.028C597.692 149.219 597.44 149.128 597.272 148.946C597.104 148.764 597.02 148.561 597.02 148.337C597.02 148.099 597.104 147.889 597.272 147.708C597.454 147.512 597.72 147.414 598.07 147.414H605.586C607.994 147.414 610.086 147.847 611.864 148.715C613.656 149.569 615.049 150.892 616.042 152.684C617.036 154.475 617.533 156.778 617.533 159.591C617.533 164.028 616.483 167.206 614.384 169.124C612.284 171.041 609.338 172 605.544 172H597.965ZM603.382 170.194H605.691C609.163 170.194 611.668 169.306 613.208 167.528C614.748 165.75 615.517 163.105 615.517 159.591C615.517 156.274 614.699 153.719 613.061 151.928C611.423 150.122 609.065 149.219 605.985 149.219H603.382V170.194Z" fill="white"/>
<path d="M638.497 172C638.147 172 637.881 171.909 637.699 171.727C637.517 171.531 637.426 171.321 637.426 171.097C637.426 170.873 637.51 170.67 637.678 170.488C637.86 170.292 638.126 170.194 638.476 170.194H644.88V149.219H638.476C638.126 149.219 637.86 149.128 637.678 148.946C637.51 148.764 637.426 148.561 637.426 148.337C637.426 148.099 637.517 147.889 637.699 147.708C637.881 147.512 638.147 147.414 638.497 147.414H652.88C653.23 147.414 653.488 147.512 653.656 147.708C653.838 147.889 653.929 148.099 653.929 148.337C653.929 148.561 653.845 148.764 653.677 148.946C653.509 149.128 653.251 149.219 652.901 149.219H646.896V170.194H652.901C653.251 170.194 653.509 170.292 653.677 170.488C653.845 170.67 653.929 170.873 653.929 171.097C653.929 171.321 653.838 171.531 653.656 171.727C653.488 171.909 653.23 172 652.88 172H638.497Z" fill="white"/>
<path d="M672.458 172C672.108 172 671.842 171.909 671.66 171.727C671.478 171.531 671.387 171.321 671.387 171.097C671.387 170.873 671.471 170.67 671.639 170.488C671.821 170.306 672.087 170.215 672.437 170.215H676.006V149.219H673.172C672.836 149.219 672.584 149.128 672.416 148.946C672.248 148.764 672.164 148.561 672.164 148.337C672.164 148.099 672.248 147.889 672.416 147.708C672.598 147.512 672.864 147.414 673.214 147.414H691.648C692.432 147.414 692.824 147.792 692.824 148.547V154.216C692.824 154.524 692.733 154.755 692.551 154.909C692.383 155.063 692.194 155.14 691.984 155.14C691.774 155.14 691.578 155.077 691.396 154.951C691.215 154.811 691.117 154.608 691.103 154.342L690.809 149.219H678.022V158.269H684.867L685.14 155.476C685.168 155.154 685.266 154.916 685.434 154.762C685.616 154.608 685.798 154.531 685.979 154.531C686.175 154.531 686.357 154.622 686.525 154.804C686.693 154.972 686.777 155.252 686.777 155.644V162.825C686.777 163.189 686.693 163.462 686.525 163.644C686.357 163.812 686.175 163.896 685.979 163.896C685.784 163.896 685.602 163.819 685.434 163.665C685.266 163.511 685.168 163.287 685.14 162.993L684.867 159.885H678.022V170.215H690.935L691.271 164.945C691.285 164.693 691.382 164.497 691.564 164.357C691.76 164.203 691.97 164.126 692.194 164.126C692.418 164.126 692.621 164.217 692.803 164.399C692.985 164.567 693.076 164.84 693.076 165.218V170.887C693.076 171.629 692.684 172 691.9 172H672.458Z" fill="white"/>
<path d="M713.054 172.357C712.704 172.357 712.445 172.245 712.277 172.021C712.123 171.811 712.046 171.405 712.046 170.803V164.21C712.046 163.875 712.137 163.63 712.319 163.476C712.501 163.308 712.718 163.224 712.97 163.224C713.221 163.224 713.445 163.308 713.641 163.476C713.837 163.644 713.935 163.903 713.935 164.252V166.751C713.935 167.353 714.278 167.948 714.964 168.536C715.65 169.11 716.525 169.592 717.589 169.984C718.666 170.362 719.786 170.551 720.948 170.551C722.488 170.551 723.811 170.18 724.916 169.438C726.036 168.683 726.596 167.409 726.596 165.617C726.596 164.259 726.176 163.259 725.336 162.615C724.496 161.971 723.307 161.39 721.767 160.872L718.324 159.696C717.218 159.318 716.21 158.898 715.3 158.437C714.404 157.975 713.683 157.359 713.138 156.589C712.606 155.819 712.34 154.79 712.34 153.502C712.34 152.103 712.669 150.927 713.326 149.975C713.984 149.023 714.859 148.302 715.951 147.812C717.057 147.323 718.268 147.078 719.583 147.078C720.591 147.078 721.676 147.204 722.838 147.456C723.999 147.694 724.944 148.211 725.672 149.009C725.672 147.722 726.036 147.078 726.764 147.078C727.044 147.078 727.254 147.19 727.394 147.414C727.534 147.624 727.604 148.001 727.604 148.547V153.859C727.604 154.237 727.506 154.517 727.31 154.699C727.128 154.881 726.904 154.972 726.638 154.972C726.4 154.972 726.183 154.888 725.987 154.72C725.791 154.552 725.693 154.307 725.693 153.985V152.075C725.609 151.347 725.273 150.752 724.685 150.29C724.097 149.814 723.384 149.464 722.544 149.24C721.718 149.002 720.892 148.883 720.066 148.883C718.275 148.883 716.875 149.289 715.867 150.101C714.859 150.913 714.355 152.012 714.355 153.397C714.355 154.363 714.53 155.105 714.88 155.623C715.244 156.141 715.79 156.568 716.518 156.904C717.26 157.226 718.198 157.583 719.331 157.975L722.187 158.961C724.23 159.661 725.812 160.487 726.932 161.439C728.052 162.377 728.612 163.742 728.612 165.533C728.612 167.185 728.248 168.515 727.52 169.522C726.792 170.516 725.84 171.237 724.664 171.685C723.489 172.133 722.229 172.357 720.885 172.357C719.765 172.357 718.541 172.133 717.211 171.685C715.881 171.237 714.824 170.607 714.04 169.795C714.04 171.503 713.711 172.357 713.054 172.357Z" fill="white"/>
<path d="M756.693 164.777C756.358 164.777 756.19 164.525 756.19 164.021C756.19 161.418 756.043 158.849 755.749 156.316C755.455 153.782 755.308 151.291 755.308 148.841C755.308 148.141 755.441 147.673 755.707 147.435C755.973 147.197 756.302 147.078 756.693 147.078C757.071 147.078 757.386 147.197 757.638 147.435C757.904 147.673 758.037 148.141 758.037 148.841C758.037 151.263 757.897 153.754 757.617 156.316C757.337 158.863 757.197 161.432 757.197 164.021C757.197 164.525 757.029 164.777 756.693 164.777ZM756.672 172.189C756.071 172.189 755.56 171.986 755.14 171.58C754.734 171.16 754.531 170.649 754.531 170.047C754.531 169.445 754.734 168.949 755.14 168.557C755.56 168.151 756.071 167.948 756.672 167.948C757.274 167.948 757.778 168.151 758.184 168.557C758.59 168.949 758.793 169.445 758.793 170.047C758.793 170.649 758.59 171.16 758.184 171.58C757.778 171.986 757.274 172.189 756.672 172.189Z" fill="white"/>
</svg>
